<svg width="111" height="44" viewBox="0 0 111 44" fill="none" xmlns="http://www.w3.org/2000/svg">
<g clip-path="url(#clip0_3400_160)">
<path d="M8.65451 17.0873V7.23535H0.58226V10.1989H5.39914V16.7135C5.39914 18.4756 4.55222 19.1164 2.9907 19.1164C2.01145 19.1164 0.899857 18.8227 0 18.262V21.3591C0.979256 21.8397 2.19671 22.1067 3.52003 22.1067C7.01359 22.1334 8.65451 20.3446 8.65451 17.0873Z" fill="white"/>
<path d="M41.0228 11.1067C41.0228 8.5703 39.2496 7.23535 36.0736 7.23535H29.9863V21.8397H36.3647C39.9112 21.8397 41.8962 20.2111 41.8962 17.4878C41.8962 15.6188 41.0493 14.4975 39.6201 14.0169C40.52 13.3494 41.0228 12.3616 41.0228 11.1067ZM33.1888 10.0121H35.8883C37.2381 10.0121 37.9262 10.546 37.9262 11.5606C37.9262 12.5485 37.3175 13.1091 35.9148 13.1091H33.2152V10.0121H33.1888ZM36.4706 19.063H33.2152V15.7523H36.4971C38.0586 15.7523 38.7202 16.2863 38.7202 17.4077C38.7202 18.6091 37.9527 19.063 36.4706 19.063Z" fill="white"/>
<path d="M8.52244 35.269L4.42015 29.1016H0.450195V43.7059H3.59969V33.3467L7.70198 39.4074H9.13117L13.2599 33.3467V43.7059H16.4888V29.1016H12.5718L8.52244 35.269Z" fill="white"/>
<path d="M20.2207 43.7059H30.5426V40.8491H23.4761V37.7787H28.3988V35.0287H23.4761V31.9584H30.5426V29.1016H20.2207V43.7059Z" fill="white"/>
<path d="M32.3154 32.1186H37.3705V43.7059H40.6523V32.1186H45.7339V29.1016H32.3154V32.1186Z" fill="white"/>
<path d="M48.1162 43.7059H58.4381V40.8491H51.3716V37.7787H56.2943V35.0287H51.3716V31.9584H58.4381V29.1016H48.1162V43.7059Z" fill="white"/>
<path d="M68.0716 28.835C63.3076 28.835 60.1846 31.7452 60.1846 36.4175C60.1846 41.0898 63.3076 44 68.0716 44C72.7561 44 75.9056 41.0898 75.9056 36.4175C75.9056 31.7452 72.7561 28.835 68.0716 28.835ZM68.0451 40.983C65.5043 40.983 63.5723 39.4078 63.5723 36.4175C63.5723 33.4272 65.5043 31.852 68.0451 31.852C70.5594 31.852 72.5179 33.3471 72.5179 36.4175C72.5179 39.4078 70.5594 40.983 68.0451 40.983Z" fill="white"/>
<path d="M91.0175 33.9875C91.0175 30.6768 88.9002 29.1016 85.4596 29.1016H78.79V43.7059H82.0719V38.7933H84.8244L87.7886 43.7059H91.5733L88.1327 38.2326C90.0647 37.5919 91.0175 35.8831 91.0175 33.9875ZM85.0626 36.0166H82.0983V31.9851H85.0626C86.8094 31.9851 87.7886 32.519 87.7886 34.0409C87.7886 35.4826 86.7829 36.0166 85.0626 36.0166Z" fill="white"/>
<path d="M106.713 20.1574C105.284 16.5798 101.578 13.0021 95.8615 9.79822C87.9746 5.36618 77.1498 2.1623 65.4252 0.74725C57.0354 -0.267313 48.7514 -0.267313 41.4996 0.74725C34.4066 1.73511 28.584 3.63074 24.667 6.22055C24.0053 6.64773 23.3966 7.12832 22.8408 7.6089C21.8086 7.18172 20.6176 6.94142 19.2943 6.94142C14.5039 6.94142 11.3809 9.85162 11.3809 14.5239C11.3809 19.1963 14.5039 22.1065 19.2678 22.1065C20.3 22.1065 21.2528 21.973 22.1262 21.6793C23.8995 23.7618 26.4138 25.7909 29.5897 27.6866L29.8015 27.3128C26.7314 25.4972 24.2965 23.5749 22.5761 21.5458C25.3816 20.4778 27.1284 17.9948 27.1284 14.5239C27.1284 11.3468 25.6727 8.99725 23.2643 7.79579C23.7671 7.36861 24.2965 6.96812 24.9052 6.56764C28.7957 4.00453 34.5389 2.1356 41.579 1.17443C48.8043 0.159872 57.0354 0.159872 65.3987 1.17443C77.0704 2.58948 87.8422 5.76667 95.7027 10.172C101.234 13.2691 104.834 16.6866 106.263 20.104C106.183 20.104 106.13 20.104 106.051 20.104C103.299 20.104 101.075 22.3468 101.075 25.1235C101.075 27.1526 102.266 28.9147 103.987 29.689C101.711 31.8783 98.1906 33.7205 93.559 35.1089L93.6913 35.5361C98.4817 34.0943 102.108 32.172 104.437 29.8759C104.939 30.0628 105.495 30.1696 106.078 30.1696C108.83 30.1696 111.053 27.9269 111.053 25.1502C111 22.5871 109.148 20.5045 106.713 20.1574ZM19.2414 19.0895C16.7006 19.0895 14.7686 17.5142 14.7686 14.5239C14.7686 11.5337 16.7006 9.95841 19.2414 9.95841C21.7557 9.95841 23.7142 11.4536 23.7142 14.5239C23.7142 17.5409 21.7557 19.0895 19.2414 19.0895Z" fill="#FFF9E4"/>
</g>
<defs>
<clipPath id="clip0_3400_160">
<rect width="111" height="44" fill="white"/>
</clipPath>
</defs>
</svg>
